<svg width="135" height="17" viewBox="0 0 135 17" fill="none" xmlns="http://www.w3.org/2000/svg">
<g id="Layer 2">
<g id="Layer 1">
<path id="Vector" d="M8.68262 0.178955L9.17226 0.241352C10.8458 0.449376 12.4077 1.20104 13.6236 2.38363C14.778 3.46781 15.5702 4.88898 15.8903 6.44981C16.153 7.59175 16.1576 8.77901 15.9039 9.92302C15.6501 11.067 15.1445 12.1383 14.4248 13.0569C13.3067 14.5816 11.6647 15.6268 9.82284 15.9861C8.53879 16.2801 7.20185 16.2374 5.93869 15.8619C4.67553 15.4864 3.52801 14.7905 2.60486 13.8403C1.38376 12.6634 0.594116 11.1013 0.365503 9.41018C0.164495 8.20087 0.247601 6.96064 0.608093 5.7899C0.968584 4.61916 1.59633 3.55081 2.4405 2.67135C3.63252 1.37854 5.22218 0.532939 6.95003 0.27255C7.16232 0.237885 7.37804 0.224019 7.59376 0.199754L7.67251 0.178955H8.68262ZM1.2181 8.19691C1.24772 10.047 1.98864 11.8126 3.28348 13.1185C4.57831 14.4244 6.32505 15.1679 8.15264 15.1909C9.98023 15.2139 11.7447 14.5147 13.0712 13.2418C14.3977 11.9688 15.1818 10.2225 15.2569 8.3737V8.24891C15.2814 6.36421 14.5654 4.54684 13.2663 3.1966C11.9673 1.84636 10.1916 1.07386 8.32994 1.04904C6.46828 1.02422 4.67313 1.74911 3.3394 3.06424C2.00568 4.37937 1.24262 6.17702 1.2181 8.06172C1.22153 8.10678 1.2181 8.15185 1.2181 8.19691Z" fill="#010101"/>
<path id="Vector_2" d="M13.2238 8.27691C13.2238 9.59928 12.7051 10.8675 11.7818 11.8029C10.8585 12.7383 9.60613 13.2642 8.29993 13.2652H8.26226C6.95788 13.2624 5.70795 12.7354 4.78722 11.8C3.86649 10.8647 3.3503 9.59744 3.35212 8.27691V8.24571C3.35847 6.92183 3.88405 5.65472 4.81323 4.72314C5.74241 3.79156 6.99907 3.27182 8.30678 3.27826C9.61448 3.28469 10.8661 3.81678 11.7863 4.75746C12.7065 5.69814 13.2199 6.97036 13.2135 8.29424L13.2238 8.27691Z" fill="#010101"/>
<g id="text827">
<path id="path4583" d="M79.1836 2.15007V3.60877C78.7236 3.17504 78.232 2.85088 77.7089 2.6363C77.1903 2.42172 76.6378 2.31443 76.0516 2.31443C74.8971 2.31443 74.0132 2.67283 73.3998 3.38962C72.7865 4.10184 72.4799 5.13366 72.4799 6.48506C72.4799 7.83189 72.7865 8.86371 73.3998 9.5805C74.0132 10.2927 74.8971 10.6488 76.0516 10.6488C76.6378 10.6488 77.1903 10.5415 77.7089 10.327C78.232 10.1124 78.7236 9.78823 79.1836 9.3545V10.7995C78.7055 11.1282 78.1982 11.3748 77.6615 11.5391C77.1294 11.7035 76.5657 11.7857 75.9704 11.7857C74.4416 11.7857 73.2375 11.3131 72.3581 10.3681C71.4787 9.41842 71.039 8.12409 71.039 6.48506C71.039 4.84146 71.4787 3.54713 72.3581 2.60206C73.2375 1.65243 74.4416 1.17761 75.9704 1.17761C76.5747 1.17761 77.1429 1.25979 77.6751 1.42415C78.2117 1.58395 78.7146 1.82592 79.1836 2.15007Z" fill="black"/>
<path id="path4585" d="M87.5395 6.95804V11.5875H86.2948V6.99913C86.2948 6.27321 86.155 5.72991 85.8754 5.36923C85.5958 5.00855 85.1764 4.82821 84.6172 4.82821C83.9452 4.82821 83.4153 5.04507 83.0275 5.4788C82.6396 5.91253 82.4457 6.50377 82.4457 7.25251V11.5875H81.1943V0.931519H82.4457V5.10899C82.7434 4.64787 83.0929 4.30317 83.4942 4.0749C83.9001 3.84662 84.3669 3.73248 84.8945 3.73248C85.7649 3.73248 86.4233 4.00641 86.8698 4.55428C87.3162 5.09758 87.5395 5.89883 87.5395 6.95804Z" fill="black"/>
<path id="path4587" d="M96.5009 7.43736V8.05371H90.778C90.8322 8.92116 91.0892 9.58317 91.5492 10.0397C92.0137 10.4917 92.6586 10.7177 93.4839 10.7177C93.9619 10.7177 94.4242 10.6584 94.8706 10.5396C95.3216 10.4209 95.7681 10.2429 96.21 10.0055V11.1971C95.7636 11.3888 95.3058 11.5349 94.8368 11.6354C94.3678 11.7358 93.892 11.786 93.4095 11.786C92.2009 11.786 91.2426 11.4299 90.5345 10.7177C89.831 10.0055 89.4792 9.04215 89.4792 7.82771C89.4792 6.57219 89.813 5.5769 90.4804 4.84185C91.1524 4.10223 92.0566 3.73242 93.193 3.73242C94.2122 3.73242 95.0172 4.06571 95.608 4.73228C96.2032 5.39428 96.5009 6.29597 96.5009 7.43736ZM95.2562 7.06755C95.2472 6.37815 95.0555 5.82801 94.6812 5.41711C94.3114 5.00621 93.8199 4.80076 93.2065 4.80076C92.512 4.80076 91.9551 4.99936 91.5357 5.39656C91.1208 5.79376 90.8818 6.35304 90.8186 7.0744L95.2562 7.06755Z" fill="black"/>
<path id="path4589" d="M103.996 4.2118V5.38971C103.644 5.1934 103.29 5.0473 102.934 4.95142C102.582 4.85098 102.226 4.80076 101.865 4.80076C101.058 4.80076 100.431 5.061 99.9846 5.58147C99.5382 6.09737 99.315 6.8233 99.315 7.75923C99.315 8.69517 99.5382 9.42337 99.9846 9.94385C100.431 10.4598 101.058 10.7177 101.865 10.7177C102.226 10.7177 102.582 10.6698 102.934 10.5739C103.29 10.4734 103.644 10.3251 103.996 10.1287V11.293C103.649 11.4573 103.288 11.5806 102.914 11.6628C102.544 11.745 102.149 11.786 101.73 11.786C100.589 11.786 99.6825 11.4231 99.0105 10.6972C98.3386 9.97124 98.0026 8.99193 98.0026 7.75923C98.0026 6.50827 98.3409 5.5244 99.0173 4.80761C99.6983 4.09082 100.63 3.73242 101.811 3.73242C102.194 3.73242 102.569 3.77351 102.934 3.85569C103.299 3.93331 103.653 4.05201 103.996 4.2118Z" fill="black"/>
<path id="path4591" d="M106.113 0.931519H107.364V7.22512L111.078 3.91738H112.668L108.65 7.5059L112.837 11.5875H111.214L107.364 7.84147V11.5875H106.113V0.931519Z" fill="black"/>
<path id="path4593" d="M116.625 4.80088C115.958 4.80088 115.43 5.06568 115.042 5.59529C114.655 6.12032 114.461 6.84168 114.461 7.75935C114.461 8.67703 114.652 9.40067 115.036 9.93027C115.423 10.4553 115.953 10.7178 116.625 10.7178C117.288 10.7178 117.814 10.453 118.201 9.92342C118.589 9.39382 118.783 8.67246 118.783 7.75935C118.783 6.85081 118.589 6.13174 118.201 5.60213C117.814 5.06797 117.288 4.80088 116.625 4.80088ZM116.625 3.73254C117.708 3.73254 118.558 4.08866 119.176 4.80088C119.793 5.51311 120.102 6.49926 120.102 7.75935C120.102 9.01488 119.793 10.001 119.176 10.7178C118.558 11.4301 117.708 11.7862 116.625 11.7862C115.538 11.7862 114.686 11.4301 114.068 10.7178C113.455 10.001 113.148 9.01488 113.148 7.75935C113.148 6.49926 113.455 5.51311 114.068 4.80088C114.686 4.08866 115.538 3.73254 116.625 3.73254Z" fill="black"/>
<path id="path4595" d="M122.039 8.56027V3.91711H123.284V8.51233C123.284 9.23826 123.423 9.78384 123.703 10.1491C123.983 10.5098 124.402 10.6901 124.961 10.6901C125.633 10.6901 126.163 10.4732 126.551 10.0395C126.943 9.60578 127.139 9.01454 127.139 8.2658V3.91711H128.384V11.5872H127.139V10.4093C126.837 10.875 126.486 11.222 126.084 11.4503C125.687 11.674 125.225 11.7858 124.697 11.7858C123.827 11.7858 123.166 11.5119 122.715 10.964C122.264 10.4162 122.039 9.61491 122.039 8.56027Z" fill="black"/>
<path id="path4597" d="M132.178 1.73993V3.91769H134.742V4.897H132.178V9.06078C132.178 9.68626 132.261 10.088 132.428 10.2661C132.6 10.4441 132.945 10.5332 133.463 10.5332H134.742V11.5878H133.463C132.503 11.5878 131.84 11.4075 131.474 11.0468C131.109 10.6815 130.926 10.0195 130.926 9.06078V4.897H130.013V3.91769H130.926V1.73993H132.178Z" fill="black"/>
</g>
<path id="Vector_3" d="M67.6965 5.15643C67.654 5.23979 67.6035 5.31873 67.5458 5.39215C67.4828 5.44783 67.4083 5.48856 67.3277 5.51135C67.2472 5.53414 67.1626 5.53842 67.0802 5.52387C66.6988 5.49943 66.3177 5.57687 65.9752 5.74843C65.6327 5.92 65.3407 6.17966 65.1284 6.50142C64.8136 6.93579 64.6434 7.4602 64.6422 7.99894C64.6422 9.03888 64.6422 10.1031 64.6422 11.1534C64.6491 11.2218 64.6409 11.2908 64.6183 11.3556C64.5957 11.4203 64.5591 11.4792 64.5113 11.5279C64.4635 11.5766 64.4056 11.614 64.3418 11.6374C64.278 11.6608 64.2098 11.6695 64.1423 11.663C64.0554 11.6769 63.9664 11.6664 63.8849 11.6328C63.8035 11.5992 63.7326 11.5437 63.68 11.4723C63.6252 11.3928 63.5943 11.2989 63.591 11.202C63.591 9.14056 63.591 7.08032 63.591 5.02123C63.5901 4.90256 63.635 4.78823 63.7163 4.70271C63.7976 4.61719 63.9087 4.56728 64.0259 4.56366H64.2108C64.3282 4.56729 64.4395 4.6178 64.5204 4.70417C64.6012 4.79054 64.645 4.90576 64.6422 5.0247C64.6422 5.37135 64.6422 5.73879 64.6422 6.09584C64.6422 6.12011 64.6422 6.14784 64.6422 6.19637L64.7038 6.09931C65.0122 5.53038 65.4921 5.07613 66.0735 4.80285C66.435 4.63638 66.8308 4.5603 67.2274 4.58099C67.3187 4.58387 67.4071 4.61405 67.4814 4.66772C67.5557 4.72139 67.6127 4.79616 67.6451 4.88258L67.676 4.95537L67.6965 5.15643Z" fill="#010101"/>
<path id="Vector_4" d="M20.591 5.98886C20.8035 5.69574 21.0533 5.43232 21.334 5.20544C21.8824 4.76568 22.5715 4.54559 23.2699 4.58715C23.9684 4.6287 24.6272 4.92899 25.121 5.43076C25.7549 6.06205 26.1375 6.9071 26.1962 7.8053C26.2464 8.29607 26.1999 8.79204 26.0594 9.2645C25.9189 9.73695 25.6873 10.1765 25.3778 10.5577C24.9367 11.1331 24.2993 11.5212 23.5905 11.6462C23.1915 11.72 22.7813 11.7049 22.3887 11.602C21.996 11.499 21.6303 11.3106 21.3169 11.0499C21.1814 10.9433 21.0532 10.8275 20.9334 10.7033C20.8169 10.575 20.7142 10.4329 20.591 10.2873C20.591 10.322 20.591 10.3532 20.591 10.3809V13.6186C20.5976 13.7463 20.5587 13.8722 20.4815 13.9733C20.4042 14.0745 20.2936 14.1442 20.1698 14.1697C20.1025 14.1856 20.0328 14.1877 19.9648 14.176C19.8967 14.1643 19.8316 14.139 19.7733 14.1016C19.715 14.0641 19.6646 14.0153 19.6251 13.958C19.5856 13.9007 19.5577 13.836 19.5432 13.7676C19.5379 13.7308 19.5379 13.6935 19.5432 13.6567V5.09105C19.5364 4.94947 19.5854 4.81094 19.6795 4.70595C19.7735 4.60096 19.905 4.53811 20.0448 4.53121C20.1847 4.52432 20.3215 4.57395 20.4252 4.66919C20.5289 4.76442 20.591 4.89747 20.5978 5.03905C20.5978 5.32677 20.5978 5.61449 20.5978 5.90567L20.591 5.98886ZM25.1792 8.12075C25.1813 7.74392 25.1091 7.37046 24.9668 7.02224C24.8245 6.67403 24.615 6.35807 24.3506 6.09286C23.9923 5.72631 23.514 5.50498 23.0057 5.47051C22.4974 5.43603 21.9942 5.59079 21.5908 5.90567C21.2759 6.15162 21.0199 6.46643 20.842 6.82658C20.6641 7.18674 20.569 7.58293 20.5636 7.98555C20.5351 8.36853 20.5856 8.75331 20.7117 9.11552C20.8378 9.47773 21.0369 9.80946 21.2963 10.0897C21.4939 10.314 21.736 10.4934 22.0069 10.6163C22.2777 10.7392 22.5712 10.8027 22.868 10.8027C23.1648 10.8027 23.4582 10.7392 23.7291 10.6163C23.9999 10.4934 24.2421 10.314 24.4396 10.0897C24.9268 9.55388 25.1916 8.84886 25.1792 8.12075Z" fill="#010101"/>
<path id="Vector_5" d="M56.7953 8.55389C56.8361 8.80754 56.9158 9.05317 57.0316 9.28185C57.1833 9.61102 57.4081 9.90024 57.6885 10.1269C57.9688 10.3536 58.2971 10.5117 58.6478 10.5887C59.1613 10.6894 59.6923 10.6438 60.1818 10.457C60.4868 10.3639 60.7643 10.196 60.9898 9.96821C61.0418 9.90394 61.1129 9.85841 61.1925 9.83842C61.2721 9.81843 61.356 9.82504 61.4316 9.85728C61.5455 9.90023 61.6381 9.98689 61.6894 10.0985C61.7407 10.2101 61.7464 10.3376 61.7055 10.4535C61.6818 10.5195 61.6431 10.5788 61.5925 10.6268C61.2195 11.0008 60.7589 11.2728 60.2537 11.4172C59.6853 11.6043 59.0827 11.66 58.4903 11.5801C57.8346 11.4893 57.2238 11.1922 56.744 10.7308C56.3619 10.3841 56.0616 9.95486 55.8655 9.47485C55.6693 8.99484 55.5822 8.47633 55.6106 7.95765C55.6132 7.35822 55.7707 6.76992 56.0675 6.25119C56.3642 5.73246 56.7898 5.30137 57.3021 5.00075C57.9228 4.62205 58.6509 4.46475 59.3702 4.55397C60.0895 4.64319 60.7586 4.97379 61.2706 5.49299C61.6176 5.83777 61.8909 6.25109 62.0735 6.70727C62.2561 7.16346 62.3441 7.65278 62.3321 8.14484C62.3286 8.25524 62.2832 8.36003 62.2055 8.43748C62.1277 8.51493 62.0234 8.5591 61.9144 8.56082H56.7953V8.55389ZM61.3699 7.68034C61.318 7.28215 61.1814 6.90012 60.9693 6.56067C60.7229 6.14738 60.349 5.82772 59.9053 5.65104C59.4615 5.47436 58.9727 5.45049 58.5142 5.58312C58.1355 5.69183 57.7895 5.89464 57.5079 6.17312C57.2262 6.4516 57.0178 6.79692 56.9015 7.1777C56.8433 7.33716 56.8125 7.52435 56.7679 7.68034H61.3699Z" fill="#010101"/>
<path id="Vector_6" d="M42.8811 8.55359C42.9565 9.04055 43.1727 9.494 43.5024 9.85674C43.8321 10.2195 44.2604 10.4753 44.7335 10.5919C45.19 10.6772 45.6601 10.6487 46.1032 10.5087C46.4424 10.4219 46.7567 10.2557 47.0208 10.0234L47.0722 9.97484C47.1191 9.91207 47.1845 9.86588 47.2588 9.84285C47.3332 9.81983 47.4129 9.82113 47.4865 9.84658C47.5447 9.86403 47.5989 9.89299 47.646 9.93179C47.693 9.97059 47.732 10.0185 47.7607 10.0726C47.7893 10.1268 47.8071 10.1862 47.8129 10.2473C47.8188 10.3085 47.8126 10.3702 47.7947 10.4289C47.7726 10.5082 47.7301 10.58 47.6714 10.6369C47.3193 10.9908 46.8865 11.2515 46.4113 11.3961C45.7722 11.6296 45.0829 11.6859 44.4151 11.559C43.9238 11.4627 43.4608 11.2539 43.0614 10.9487C42.6621 10.6435 42.3369 10.2499 42.1107 9.79805C41.7677 9.15736 41.6237 8.42676 41.6976 7.70187C41.7715 6.97698 42.0599 6.29157 42.525 5.73534C42.8372 5.33838 43.2381 5.02228 43.6948 4.81314C44.1514 4.60399 44.6507 4.50779 45.1513 4.53248C45.7092 4.54338 46.2548 4.70048 46.7349 4.98844C47.2149 5.27641 47.6131 5.68542 47.8905 6.17559C48.2401 6.74402 48.4207 7.40224 48.411 8.07175C48.425 8.17114 48.4034 8.27233 48.35 8.35693C48.2965 8.44153 48.2149 8.50393 48.12 8.53279C48.0637 8.5515 48.0045 8.55973 47.9453 8.55705H42.8811V8.55359ZM42.8811 7.68004H47.4523V7.63497C47.3874 7.18236 47.2094 6.75401 46.9352 6.39051C46.707 6.06588 46.3937 5.81236 46.0307 5.6586C45.6676 5.50484 45.2693 5.45697 44.8808 5.52042C44.3562 5.6066 43.8739 5.86444 43.5078 6.25447C43.1417 6.6445 42.912 7.14524 42.8537 7.68004H42.8811Z" fill="#010101"/>
<path id="Vector_7" d="M32.8466 5.99227V5.11525C32.8448 5.04469 32.8567 4.97446 32.8817 4.90858C32.9067 4.84269 32.9443 4.78244 32.9923 4.73126C33.0403 4.68008 33.0978 4.63897 33.1615 4.61029C33.2253 4.5816 33.2939 4.5659 33.3636 4.56408C33.4333 4.56226 33.5027 4.57436 33.5678 4.59968C33.6328 4.625 33.6924 4.66304 33.7429 4.71165C33.7935 4.76026 33.8341 4.81847 33.8624 4.88296C33.8907 4.94745 33.9062 5.01696 33.908 5.08752V11.1088C33.908 11.1793 33.8943 11.2492 33.8676 11.3144C33.841 11.3796 33.8019 11.4388 33.7526 11.4887C33.7033 11.5386 33.6448 11.5782 33.5804 11.6052C33.516 11.6322 33.447 11.6461 33.3773 11.6461C33.3076 11.6461 33.2386 11.6322 33.1742 11.6052C33.1098 11.5782 33.0513 11.5386 33.002 11.4887C32.9527 11.4388 32.9136 11.3796 32.887 11.3144C32.8603 11.2492 32.8466 11.1793 32.8466 11.1088V10.2942L32.7781 10.3878C32.3834 10.9743 31.7982 11.4023 31.1243 11.5976C30.6549 11.7385 30.1572 11.7511 29.6814 11.6342C29.2057 11.5173 28.7691 11.275 28.4158 10.932C27.8178 10.3898 27.4235 9.65502 27.2995 8.85211C27.1437 8.0159 27.264 7.15101 27.642 6.39091C27.9835 5.64835 28.5977 5.07002 29.354 4.779C29.8287 4.59418 30.3446 4.54557 30.8448 4.63854C31.3451 4.73151 31.8102 4.96244 32.1891 5.30591C32.4214 5.49187 32.6266 5.7101 32.7986 5.95414L32.8295 5.99574L32.8466 5.99227ZM32.8945 8.13455C32.8967 7.75997 32.8259 7.38863 32.686 7.04183C32.5462 6.69503 32.3401 6.37959 32.0796 6.1136C31.6956 5.71347 31.1715 5.48228 30.6205 5.46996C30.0696 5.45764 29.536 5.66516 29.1349 6.04773C28.6357 6.5128 28.3287 7.15177 28.2754 7.83643C28.2275 8.23532 28.2638 8.63996 28.3818 9.02361C28.4999 9.40725 28.697 9.76115 28.9602 10.0619C29.1507 10.2909 29.3866 10.4768 29.6527 10.6074C29.9188 10.738 30.209 10.8104 30.5046 10.8199C30.8002 10.8294 31.0944 10.7757 31.3681 10.6624C31.6418 10.5492 31.8889 10.3788 32.0933 10.1624C32.3522 9.89449 32.5562 9.57741 32.6937 9.2294C32.8312 8.8814 32.8994 8.50933 32.8945 8.13455Z" fill="#010101"/>
<path id="Vector_8" d="M38.0763 9.66339L38.3366 9.08449L40.1959 4.90392C40.222 4.83476 40.2619 4.77174 40.313 4.71871C40.364 4.66569 40.4253 4.62377 40.4929 4.59554C40.5606 4.56731 40.6332 4.55335 40.7063 4.55452C40.7795 4.55568 40.8516 4.57196 40.9183 4.60234C41.042 4.66128 41.1385 4.76627 41.1876 4.89542C41.2367 5.02458 41.2347 5.16794 41.182 5.29563C40.9286 5.8676 40.6718 6.44303 40.415 7.02887L37.4497 13.7192C37.4168 13.8043 37.3641 13.8803 37.2962 13.9406C37.2283 14.0009 37.1471 14.0438 37.0594 14.0658C36.9625 14.09 36.8608 14.086 36.7661 14.0543C36.6713 14.0226 36.5873 13.9645 36.5237 13.8867C36.4601 13.8089 36.4194 13.7145 36.4063 13.6144C36.3933 13.5142 36.4084 13.4124 36.4499 13.3205C36.6519 12.8595 36.8608 12.3984 37.0662 11.9339C37.1964 11.6358 37.3265 11.3412 37.46 11.0465C37.4718 11.0228 37.4779 10.9967 37.4779 10.9702C37.4779 10.9438 37.4718 10.9177 37.46 10.894L34.9844 5.34763C34.9175 5.22744 34.8989 5.08582 34.9323 4.9521C34.9657 4.81837 35.0487 4.70279 35.164 4.62928C35.2793 4.55577 35.4181 4.52997 35.5517 4.55722C35.6852 4.58447 35.8033 4.66268 35.8815 4.77566C35.9072 4.81253 35.929 4.85204 35.9466 4.89352C36.1931 5.43776 36.4362 5.98893 36.6793 6.53663C37.1359 7.55577 37.5924 8.57492 38.049 9.59406C38.0455 9.61486 38.0592 9.63912 38.0763 9.66339Z" fill="#010101"/>
<path id="Vector_9" d="M52.0741 9.66357L52.4679 8.77962C53.0454 7.48085 53.623 6.18323 54.2005 4.88677C54.253 4.75593 54.3543 4.6513 54.4825 4.59551C54.6107 4.53971 54.7554 4.53725 54.8853 4.58865C54.9608 4.61773 55.0285 4.66419 55.0832 4.72436C55.1379 4.78452 55.178 4.85674 55.2003 4.9353C55.2344 5.06048 55.221 5.19402 55.1627 5.30968L53.1904 9.7433C52.9918 10.1939 52.7898 10.6411 52.5912 11.0918C52.5505 11.1977 52.4782 11.2881 52.3842 11.3502C52.2902 11.4124 52.1794 11.4432 52.0673 11.4384C51.9548 11.4429 51.8437 11.412 51.7492 11.3499C51.6548 11.2878 51.5817 11.1976 51.54 11.0918C50.6885 9.19444 49.8371 7.28557 48.9856 5.36514C48.9479 5.30069 48.9237 5.229 48.9148 5.15462C48.9059 5.08024 48.9123 5.00478 48.9337 4.93305C48.9551 4.86131 48.9909 4.79486 49.039 4.7379C49.0871 4.68094 49.1464 4.63473 49.2131 4.60218C49.2797 4.56964 49.3524 4.55148 49.4263 4.54886C49.5003 4.54623 49.574 4.5592 49.6428 4.58693C49.7115 4.61467 49.7738 4.65657 49.8258 4.70997C49.8777 4.76338 49.9181 4.82713 49.9444 4.89717L50.7867 6.7864C51.2044 7.72235 51.6187 8.66176 52.0365 9.59771L52.0741 9.66357Z" fill="#010101"/>
</g>
</g>
</svg>
